<mxfile host="app.diagrams.net" modified="2021-08-19T01:35:19.394Z" agent="5.0 (Macintosh; Intel Mac OS X 10_15_7) AppleWebKit/537.36 (KHTML, like Gecko) Chrome/92.0.4515.131 Safari/537.36" etag="EiVot2tqVugwoXJiORtx" version="14.9.6" type="github">
  <diagram id="_CFVlyO3n7O7LPW5y-Zj" name="Page-1">
    <mxGraphModel dx="946" dy="646" grid="1" gridSize="10" guides="1" tooltips="1" connect="1" arrows="1" fold="1" page="1" pageScale="1" pageWidth="3300" pageHeight="4681" math="0" shadow="0">
      <root>
        <mxCell id="0" />
        <mxCell id="1" parent="0" />
        <mxCell id="yPHF9uIYkZc6U09vIBZx-6" style="edgeStyle=orthogonalEdgeStyle;rounded=0;orthogonalLoop=1;jettySize=auto;html=1;entryX=0;entryY=0.5;entryDx=0;entryDy=0;" edge="1" parent="1" source="yPHF9uIYkZc6U09vIBZx-1" target="yPHF9uIYkZc6U09vIBZx-2">
          <mxGeometry relative="1" as="geometry" />
        </mxCell>
        <mxCell id="yPHF9uIYkZc6U09vIBZx-1" value="Admin activates Tournament" style="rounded=1;whiteSpace=wrap;html=1;" vertex="1" parent="1">
          <mxGeometry x="40" y="40" width="120" height="60" as="geometry" />
        </mxCell>
        <mxCell id="yPHF9uIYkZc6U09vIBZx-7" style="edgeStyle=orthogonalEdgeStyle;rounded=0;orthogonalLoop=1;jettySize=auto;html=1;entryX=0;entryY=0.5;entryDx=0;entryDy=0;" edge="1" parent="1" source="yPHF9uIYkZc6U09vIBZx-2" target="yPHF9uIYkZc6U09vIBZx-4">
          <mxGeometry relative="1" as="geometry" />
        </mxCell>
        <mxCell id="yPHF9uIYkZc6U09vIBZx-2" value="Tournament is active flag becomes Y" style="rounded=1;whiteSpace=wrap;html=1;" vertex="1" parent="1">
          <mxGeometry x="230" y="40" width="120" height="60" as="geometry" />
        </mxCell>
        <mxCell id="yPHF9uIYkZc6U09vIBZx-9" style="edgeStyle=orthogonalEdgeStyle;rounded=0;orthogonalLoop=1;jettySize=auto;html=1;" edge="1" parent="1" source="yPHF9uIYkZc6U09vIBZx-4" target="yPHF9uIYkZc6U09vIBZx-8">
          <mxGeometry relative="1" as="geometry" />
        </mxCell>
        <mxCell id="yPHF9uIYkZc6U09vIBZx-4" value="Week 1 flag becomes Y" style="rounded=1;whiteSpace=wrap;html=1;" vertex="1" parent="1">
          <mxGeometry x="400" y="40" width="120" height="60" as="geometry" />
        </mxCell>
        <mxCell id="yPHF9uIYkZc6U09vIBZx-11" style="edgeStyle=orthogonalEdgeStyle;rounded=0;orthogonalLoop=1;jettySize=auto;html=1;entryX=0.5;entryY=0;entryDx=0;entryDy=0;" edge="1" parent="1" source="yPHF9uIYkZc6U09vIBZx-8" target="yPHF9uIYkZc6U09vIBZx-10">
          <mxGeometry relative="1" as="geometry" />
        </mxCell>
        <mxCell id="yPHF9uIYkZc6U09vIBZx-8" value="Players enter slots till Thursday Night" style="rounded=1;whiteSpace=wrap;html=1;" vertex="1" parent="1">
          <mxGeometry x="600" y="40" width="120" height="60" as="geometry" />
        </mxCell>
        <mxCell id="yPHF9uIYkZc6U09vIBZx-13" style="edgeStyle=orthogonalEdgeStyle;rounded=0;orthogonalLoop=1;jettySize=auto;html=1;entryX=0.5;entryY=0;entryDx=0;entryDy=0;" edge="1" parent="1" source="yPHF9uIYkZc6U09vIBZx-10" target="yPHF9uIYkZc6U09vIBZx-12">
          <mxGeometry relative="1" as="geometry" />
        </mxCell>
        <mxCell id="yPHF9uIYkZc6U09vIBZx-10" value="slots are saved under player name in tournament register, under the active week" style="rounded=1;whiteSpace=wrap;html=1;" vertex="1" parent="1">
          <mxGeometry x="600" y="160" width="120" height="60" as="geometry" />
        </mxCell>
        <mxCell id="yPHF9uIYkZc6U09vIBZx-15" style="edgeStyle=orthogonalEdgeStyle;rounded=0;orthogonalLoop=1;jettySize=auto;html=1;" edge="1" parent="1" source="yPHF9uIYkZc6U09vIBZx-12" target="yPHF9uIYkZc6U09vIBZx-14">
          <mxGeometry relative="1" as="geometry" />
        </mxCell>
        <mxCell id="yPHF9uIYkZc6U09vIBZx-35" style="edgeStyle=orthogonalEdgeStyle;rounded=0;orthogonalLoop=1;jettySize=auto;html=1;" edge="1" parent="1" source="yPHF9uIYkZc6U09vIBZx-12" target="yPHF9uIYkZc6U09vIBZx-34">
          <mxGeometry relative="1" as="geometry" />
        </mxCell>
        <mxCell id="yPHF9uIYkZc6U09vIBZx-12" value="On Friday admin hits create weekend schedule button" style="rounded=1;whiteSpace=wrap;html=1;" vertex="1" parent="1">
          <mxGeometry x="600" y="280" width="120" height="60" as="geometry" />
        </mxCell>
        <mxCell id="yPHF9uIYkZc6U09vIBZx-17" style="edgeStyle=orthogonalEdgeStyle;rounded=0;orthogonalLoop=1;jettySize=auto;html=1;" edge="1" parent="1" source="yPHF9uIYkZc6U09vIBZx-14" target="yPHF9uIYkZc6U09vIBZx-16">
          <mxGeometry relative="1" as="geometry" />
        </mxCell>
        <mxCell id="yPHF9uIYkZc6U09vIBZx-14" value="create 12 temp arrays with names of folks who have given that slot" style="rounded=1;whiteSpace=wrap;html=1;" vertex="1" parent="1">
          <mxGeometry x="600" y="400" width="120" height="60" as="geometry" />
        </mxCell>
        <mxCell id="yPHF9uIYkZc6U09vIBZx-19" style="edgeStyle=orthogonalEdgeStyle;rounded=0;orthogonalLoop=1;jettySize=auto;html=1;entryX=0.5;entryY=0;entryDx=0;entryDy=0;" edge="1" parent="1" source="yPHF9uIYkZc6U09vIBZx-16" target="yPHF9uIYkZc6U09vIBZx-18">
          <mxGeometry relative="1" as="geometry" />
        </mxCell>
        <mxCell id="yPHF9uIYkZc6U09vIBZx-16" value="check if a combination of 2 names is a legit match in match register and not completed" style="rounded=1;whiteSpace=wrap;html=1;" vertex="1" parent="1">
          <mxGeometry x="580" y="520" width="160" height="90" as="geometry" />
        </mxCell>
        <mxCell id="yPHF9uIYkZc6U09vIBZx-21" style="edgeStyle=orthogonalEdgeStyle;rounded=0;orthogonalLoop=1;jettySize=auto;html=1;entryX=0.5;entryY=0;entryDx=0;entryDy=0;" edge="1" parent="1" source="yPHF9uIYkZc6U09vIBZx-18" target="yPHF9uIYkZc6U09vIBZx-20">
          <mxGeometry relative="1" as="geometry" />
        </mxCell>
        <mxCell id="yPHF9uIYkZc6U09vIBZx-18" value="If yes move the combo to a temp array called upcoming match with the slot" style="rounded=1;whiteSpace=wrap;html=1;" vertex="1" parent="1">
          <mxGeometry x="580" y="660" width="160" height="90" as="geometry" />
        </mxCell>
        <mxCell id="yPHF9uIYkZc6U09vIBZx-23" style="edgeStyle=orthogonalEdgeStyle;rounded=0;orthogonalLoop=1;jettySize=auto;html=1;" edge="1" parent="1" source="yPHF9uIYkZc6U09vIBZx-20" target="yPHF9uIYkZc6U09vIBZx-22">
          <mxGeometry relative="1" as="geometry" />
        </mxCell>
        <mxCell id="yPHF9uIYkZc6U09vIBZx-20" value="Count the number of entries for each slot" style="rounded=1;whiteSpace=wrap;html=1;" vertex="1" parent="1">
          <mxGeometry x="580" y="800" width="160" height="90" as="geometry" />
        </mxCell>
        <mxCell id="yPHF9uIYkZc6U09vIBZx-25" style="edgeStyle=orthogonalEdgeStyle;rounded=0;orthogonalLoop=1;jettySize=auto;html=1;entryX=0;entryY=0.5;entryDx=0;entryDy=0;" edge="1" parent="1" source="yPHF9uIYkZc6U09vIBZx-22" target="yPHF9uIYkZc6U09vIBZx-24">
          <mxGeometry relative="1" as="geometry" />
        </mxCell>
        <mxCell id="yPHF9uIYkZc6U09vIBZx-22" value="If the length of any slot is less than 4 then add time/date to the respective match in match register" style="rounded=1;whiteSpace=wrap;html=1;" vertex="1" parent="1">
          <mxGeometry x="580" y="950" width="160" height="90" as="geometry" />
        </mxCell>
        <mxCell id="yPHF9uIYkZc6U09vIBZx-28" style="edgeStyle=orthogonalEdgeStyle;rounded=0;orthogonalLoop=1;jettySize=auto;html=1;entryX=0.5;entryY=1;entryDx=0;entryDy=0;" edge="1" parent="1" source="yPHF9uIYkZc6U09vIBZx-24" target="yPHF9uIYkZc6U09vIBZx-26">
          <mxGeometry relative="1" as="geometry" />
        </mxCell>
        <mxCell id="yPHF9uIYkZc6U09vIBZx-24" value="If the length of any slot is equal to 4 then add time/date to the respective match in match register" style="rounded=1;whiteSpace=wrap;html=1;" vertex="1" parent="1">
          <mxGeometry x="800" y="950" width="160" height="90" as="geometry" />
        </mxCell>
        <mxCell id="yPHF9uIYkZc6U09vIBZx-29" style="edgeStyle=orthogonalEdgeStyle;rounded=0;orthogonalLoop=1;jettySize=auto;html=1;" edge="1" parent="1" source="yPHF9uIYkZc6U09vIBZx-26" target="yPHF9uIYkZc6U09vIBZx-27">
          <mxGeometry relative="1" as="geometry" />
        </mxCell>
        <mxCell id="yPHF9uIYkZc6U09vIBZx-26" value="If the length of any slot is greater then total the number of matches completed by the 2 players" style="rounded=1;whiteSpace=wrap;html=1;" vertex="1" parent="1">
          <mxGeometry x="800" y="800" width="160" height="90" as="geometry" />
        </mxCell>
        <mxCell id="yPHF9uIYkZc6U09vIBZx-31" style="edgeStyle=orthogonalEdgeStyle;rounded=0;orthogonalLoop=1;jettySize=auto;html=1;entryX=0.5;entryY=1;entryDx=0;entryDy=0;" edge="1" parent="1" source="yPHF9uIYkZc6U09vIBZx-27" target="yPHF9uIYkZc6U09vIBZx-30">
          <mxGeometry relative="1" as="geometry" />
        </mxCell>
        <mxCell id="yPHF9uIYkZc6U09vIBZx-27" value="Keep the 4 matches that have the lowest total" style="rounded=1;whiteSpace=wrap;html=1;" vertex="1" parent="1">
          <mxGeometry x="800" y="660" width="160" height="90" as="geometry" />
        </mxCell>
        <mxCell id="yPHF9uIYkZc6U09vIBZx-33" style="edgeStyle=orthogonalEdgeStyle;rounded=0;orthogonalLoop=1;jettySize=auto;html=1;entryX=0;entryY=0.5;entryDx=0;entryDy=0;" edge="1" parent="1" source="yPHF9uIYkZc6U09vIBZx-30" target="yPHF9uIYkZc6U09vIBZx-32">
          <mxGeometry relative="1" as="geometry" />
        </mxCell>
        <mxCell id="yPHF9uIYkZc6U09vIBZx-30" value="Then add time/date to the respective match in match register" style="rounded=1;whiteSpace=wrap;html=1;" vertex="1" parent="1">
          <mxGeometry x="800" y="520" width="160" height="90" as="geometry" />
        </mxCell>
        <mxCell id="yPHF9uIYkZc6U09vIBZx-37" style="edgeStyle=orthogonalEdgeStyle;rounded=0;orthogonalLoop=1;jettySize=auto;html=1;" edge="1" parent="1" source="yPHF9uIYkZc6U09vIBZx-32" target="yPHF9uIYkZc6U09vIBZx-36">
          <mxGeometry relative="1" as="geometry" />
        </mxCell>
        <mxCell id="yPHF9uIYkZc6U09vIBZx-32" value="At the end of this logic matches in the match register should have status as Scheduled Tournament match and the date and the time" style="rounded=1;whiteSpace=wrap;html=1;" vertex="1" parent="1">
          <mxGeometry x="1040" y="520" width="160" height="90" as="geometry" />
        </mxCell>
        <mxCell id="yPHF9uIYkZc6U09vIBZx-34" value="Active week rolls over to week 2" style="rounded=1;whiteSpace=wrap;html=1;" vertex="1" parent="1">
          <mxGeometry x="410" y="280" width="120" height="60" as="geometry" />
        </mxCell>
        <mxCell id="yPHF9uIYkZc6U09vIBZx-36" value="On the front end the user should be able to see the following 1) all tournament matches in current tournament tab 2) all upcoming matches in upcoming matches tab" style="rounded=1;whiteSpace=wrap;html=1;" vertex="1" parent="1">
          <mxGeometry x="1040" y="660" width="160" height="120" as="geometry" />
        </mxCell>
      </root>
    </mxGraphModel>
  </diagram>
</mxfile>
